<?xml version="1.0" encoding="utf-8"?>
<svg x="0px" y="0px" width="213px" height="213px" viewBox="-14.089 -17.251 213 213" xmlns="http://www.w3.org/2000/svg">
  <path d="M27.04,65.449c-0.232-0.232-0.348-0.507-0.348-0.827V44.348c0-0.319,0.115-0.595,0.348-0.827&#10;&#9;c0.232-0.232,0.507-0.348,0.827-0.348h7.614c0.318,0,0.594,0.116,0.826,0.348c0.232,0.232,0.348,0.508,0.348,0.827v1.522&#10;&#9;c0.958-0.841,2.016-1.501,3.176-1.979c1.16-0.479,2.364-0.718,3.611-0.718h2.088c0.319,0,0.594,0.116,0.827,0.348&#10;&#9;c0.231,0.232,0.348,0.508,0.348,0.827v6.787c0,0.319-0.116,0.595-0.348,0.827c-0.232,0.233-0.508,0.348-0.827,0.348h-5.613&#10;&#9;c-1.74,0-2.61,0.87-2.61,2.611v9.702c0,0.319-0.116,0.595-0.348,0.827c-0.232,0.232-0.508,0.348-0.827,0.348h-8.267&#10;&#9;C27.547,65.797,27.272,65.682,27.04,65.449z" style="fill: rgb(255, 255, 255);"/>
  <path d="M49.577,65.449c-0.233-0.232-0.348-0.507-0.348-0.827V36.082c0-0.319,0.115-0.595,0.348-0.827&#10;&#9;c0.232-0.231,0.507-0.348,0.827-0.348h7.788c0.319,0,0.594,0.117,0.827,0.348c0.232,0.232,0.348,0.508,0.348,0.827v28.541&#10;&#9;c0,0.319-0.116,0.595-0.348,0.827c-0.232,0.232-0.508,0.348-0.827,0.348h-7.788C50.084,65.797,49.809,65.682,49.577,65.449z" style="fill: rgb(255, 255, 255);"/>
  <path d="M61.802,65.493c-0.203-0.203-0.304-0.45-0.304-0.74c0-0.232,0.058-0.42,0.174-0.565l7.048-10.051&#10;&#9;l-6.265-9.354c-0.116-0.174-0.174-0.362-0.174-0.566c0-0.289,0.101-0.536,0.304-0.739c0.203-0.203,0.45-0.305,0.739-0.305h7.963&#10;&#9;c0.376,0,0.667,0.081,0.87,0.239c0.203,0.16,0.376,0.356,0.522,0.588l2.523,3.872L77.726,44c0.145-0.232,0.319-0.428,0.522-0.588&#10;&#9;c0.202-0.159,0.493-0.239,0.87-0.239h7.614c0.29,0,0.537,0.102,0.74,0.305c0.202,0.204,0.304,0.435,0.304,0.696&#10;&#9;c0,0.232-0.058,0.436-0.174,0.609l-6.396,9.311l7.179,10.094c0.115,0.146,0.174,0.333,0.174,0.565c0,0.291-0.102,0.537-0.305,0.74&#10;&#9;c-0.204,0.203-0.45,0.304-0.74,0.304h-8.354c-0.348,0-0.609-0.065-0.783-0.196c-0.174-0.131-0.348-0.312-0.522-0.544l-2.871-4.221&#10;&#9;l-3.003,4.221c-0.319,0.493-0.754,0.74-1.305,0.74h-8.136C62.251,65.797,62.005,65.696,61.802,65.493z" style="fill: rgb(255, 255, 255);"/>
  <path d="M 12.196 96.845 C 4.662 89.812 0.647 79.811 0.149 66.841 C 0.049 64.148 0 59.759 0 53.672 C 0 47.488 0.049 42.999 0.149 40.204 C 0.647 27.435 4.688 17.484 12.27 10.35 C 19.851 3.219 30.476 -0.349 44.145 -0.349 C 53.024 -0.349 60.755 1.173 67.34 4.215 C 73.924 7.259 79.036 11.423 82.678 16.71 C 86.319 21.999 88.238 27.933 88.44 34.518 L 88.44 34.818 C 88.44 35.617 88.114 36.291 87.467 36.838 C 86.817 37.387 86.094 37.661 85.297 37.661 L 70.781 37.661 C 69.584 37.661 68.686 37.387 68.088 36.838 C 67.489 36.291 66.989 35.318 66.591 33.92 C 65.094 27.736 62.499 23.37 58.81 20.827 C 55.118 18.283 50.228 17.011 44.144 17.011 C 29.877 17.011 22.446 24.993 21.847 40.954 C 21.747 43.648 21.699 47.789 21.699 53.375 C 21.699 58.963 21.747 63.203 21.847 66.094 C 22.447 82.057 29.877 90.038 44.144 90.038 C 50.13 90.038 54.994 88.766 58.735 86.222 C 62.475 83.677 65.094 79.314 66.591 73.128 C 66.988 71.732 67.489 70.76 68.088 70.21 C 68.686 69.663 69.585 69.387 70.781 69.387 L 85.297 69.387 C 86.195 69.387 86.967 69.685 87.617 70.284 C 88.263 70.883 88.537 71.631 88.44 72.528 C 88.238 79.112 86.319 85.049 82.678 90.336 C 79.036 95.625 73.924 99.789 67.34 102.832 C 60.756 105.875 53.024 107.395 44.145 107.395 C 30.378 107.395 19.727 103.879 12.196 96.845 Z" style="fill: rgb(255, 255, 255);"/>
  <path d="M3.652,144.435c-0.184-0.184-0.275-0.406-0.275-0.668v-18.5c0-0.288,0.092-0.523,0.275-0.708&#10;&#9;c0.183-0.182,0.406-0.274,0.667-0.274H7.54c0.288,0,0.523,0.093,0.707,0.274c0.183,0.185,0.275,0.42,0.275,0.708v1.61&#10;&#9;c1.309-1.729,3.194-2.593,5.656-2.593h1.649c0.288,0,0.517,0.086,0.688,0.256s0.255,0.399,0.255,0.687v2.868&#10;&#9;c0,0.262-0.085,0.484-0.255,0.667c-0.17,0.185-0.399,0.275-0.688,0.275h-3.103c-1.231,0-2.199,0.354-2.906,1.061&#10;&#9;s-1.061,1.676-1.061,2.906v10.763c0,0.262-0.092,0.484-0.275,0.668c-0.184,0.183-0.406,0.274-0.668,0.274H4.319&#10;&#9;C4.058,144.709,3.834,144.617,3.652,144.435z" style="fill: rgb(255, 255, 255);"/>
  <path d="M21.426,142.588c-1.716-1.675-2.626-4.059-2.73-7.148l-0.039-0.981c0-3.273,0.857-5.854,2.572-7.738&#10;&#9;c1.715-1.886,4.091-2.828,7.129-2.828c3.116,0,5.519,0.942,7.208,2.828c1.689,1.885,2.534,4.399,2.534,7.541v0.825&#10;&#9;c0,0.262-0.092,0.484-0.275,0.668c-0.184,0.184-0.419,0.274-0.707,0.274h-13.04v0.314c0.052,1.467,0.452,2.678,1.198,3.634&#10;&#9;s1.774,1.434,3.083,1.434c1.493,0,2.711-0.603,3.653-1.808c0.236-0.288,0.419-0.464,0.55-0.529s0.354-0.099,0.668-0.099h3.457&#10;&#9;c0.235,0,0.438,0.065,0.609,0.196c0.17,0.132,0.255,0.314,0.255,0.55c0,0.629-0.373,1.369-1.12,2.22&#10;&#9;c-0.746,0.851-1.812,1.59-3.201,2.219c-1.388,0.629-2.999,0.943-4.831,0.943C25.464,145.103,23.14,144.265,21.426,142.588z&#10;&#9; M32.678,132.69v-0.079c0-1.545-0.386-2.782-1.159-3.711c-0.772-0.93-1.826-1.396-3.162-1.396c-1.335,0-2.383,0.466-3.142,1.396&#10;&#9;c-0.76,0.929-1.139,2.166-1.139,3.711v0.079H32.678z" style="fill: rgb(255, 255, 255);"/>
  <path d="M42.576,144.435c-0.184-0.184-0.274-0.406-0.274-0.668v-26.002c0-0.288,0.091-0.518,0.274-0.688&#10;&#9;c0.183-0.17,0.406-0.256,0.668-0.256h3.299c0.288,0,0.517,0.086,0.688,0.256c0.17,0.17,0.255,0.399,0.255,0.688v26.002&#10;&#9;c0,0.262-0.085,0.484-0.255,0.668c-0.171,0.183-0.399,0.274-0.688,0.274h-3.299C42.981,144.709,42.758,144.617,42.576,144.435z" style="fill: rgb(255, 255, 255);"/>
  <path d="M54.968,144.297c-1.113-0.537-1.99-1.263-2.631-2.18c-0.642-0.917-0.962-1.925-0.962-3.024&#10;&#9;c0-1.78,0.72-3.222,2.161-4.321c1.44-1.1,3.417-1.846,5.931-2.239l5.381-0.785v-0.824c0-1.126-0.289-1.977-0.864-2.554&#10;&#9;c-0.577-0.575-1.493-0.864-2.75-0.864c-0.864,0-1.558,0.157-2.082,0.472c-0.524,0.314-0.95,0.636-1.276,0.962&#10;&#9;c-0.328,0.328-0.544,0.545-0.648,0.648c-0.104,0.314-0.301,0.472-0.589,0.472h-3.063c-0.236,0-0.438-0.079-0.608-0.235&#10;&#9;c-0.171-0.157-0.256-0.367-0.256-0.629c0.026-0.654,0.347-1.395,0.962-2.22c0.615-0.824,1.564-1.545,2.848-2.159&#10;&#9;c1.283-0.615,2.867-0.924,4.752-0.924c3.09,0,5.342,0.694,6.755,2.082c1.416,1.389,2.122,3.208,2.122,5.459v12.334&#10;&#9;c0,0.262-0.086,0.484-0.256,0.668c-0.17,0.183-0.399,0.274-0.687,0.274h-3.26c-0.262,0-0.485-0.092-0.668-0.274&#10;&#9;c-0.184-0.184-0.275-0.406-0.275-0.668v-1.532c-0.576,0.838-1.388,1.525-2.435,2.062c-1.048,0.536-2.357,0.806-3.928,0.806&#10;&#9;C57.305,145.103,56.081,144.833,54.968,144.297z M63.511,139.917c0.917-0.942,1.375-2.304,1.375-4.085v-0.785l-3.928,0.628&#10;&#9;c-3.012,0.472-4.517,1.48-4.517,3.024c0,0.839,0.347,1.486,1.041,1.944c0.693,0.459,1.525,0.688,2.494,0.688&#10;&#9;C61.416,141.331,62.594,140.859,63.511,139.917z" style="fill: rgb(255, 255, 255);"/>
  <path d="M73.703,144.453c-0.171-0.17-0.256-0.372-0.256-0.607c0-0.236,0.079-0.458,0.236-0.669l6.717-8.955&#10;&#9;l-6.206-8.405c-0.157-0.209-0.236-0.433-0.236-0.668s0.085-0.438,0.255-0.608c0.17-0.17,0.374-0.256,0.609-0.256h3.457&#10;&#9;c0.288,0,0.504,0.059,0.648,0.177c0.144,0.118,0.295,0.282,0.452,0.491l4.399,5.853l4.36-5.853c0.026-0.026,0.124-0.144,0.295-0.353&#10;&#9;c0.17-0.211,0.438-0.315,0.805-0.315h3.339c0.235,0,0.432,0.086,0.589,0.256c0.157,0.17,0.236,0.36,0.236,0.569&#10;&#9;c0,0.262-0.079,0.498-0.236,0.707l-6.285,8.444l6.755,8.916c0.157,0.211,0.236,0.433,0.236,0.669c0,0.235-0.085,0.438-0.255,0.607&#10;&#9;c-0.171,0.171-0.373,0.256-0.609,0.256h-3.614c-0.419,0-0.773-0.209-1.06-0.628l-4.714-6.206l-4.752,6.206&#10;&#9;c-0.288,0.419-0.642,0.628-1.061,0.628h-3.495C74.076,144.709,73.873,144.624,73.703,144.453z" style="fill: rgb(255, 255, 255);"/>
  <path d="M5.38,172.336c-1.493-1.585-2.278-3.804-2.356-6.658l-0.04-1.571l0.04-1.571&#10;&#9;c0.078-2.854,0.864-5.073,2.356-6.657s3.6-2.377,6.324-2.377c1.729,0,3.201,0.309,4.419,0.923c1.217,0.616,2.127,1.402,2.729,2.357&#10;&#9;c0.603,0.956,0.93,1.944,0.983,2.965c0.024,0.236-0.053,0.439-0.236,0.609c-0.184,0.171-0.393,0.256-0.629,0.256H18.42&#10;&#9;c-0.262,0-0.452-0.06-0.57-0.178c-0.118-0.117-0.242-0.334-0.373-0.647c-0.524-1.44-1.257-2.468-2.2-3.083s-2.134-0.924-3.574-0.924&#10;&#9;c-1.885,0-3.385,0.57-4.498,1.709c-1.113,1.139-1.708,2.887-1.787,5.243l-0.039,1.375l0.039,1.375&#10;&#9;c0.079,2.356,0.674,4.104,1.787,5.243c1.113,1.14,2.612,1.709,4.498,1.709c1.44,0,2.631-0.308,3.574-0.923s1.676-1.644,2.2-3.084&#10;&#9;c0.131-0.313,0.255-0.53,0.373-0.647c0.118-0.118,0.308-0.177,0.57-0.177h0.549c0.236,0,0.445,0.085,0.629,0.255&#10;&#9;c0.183,0.171,0.261,0.373,0.236,0.609c-0.053,1.021-0.38,2.01-0.983,2.965c-0.603,0.956-1.512,1.742-2.729,2.356&#10;&#9;c-1.218,0.616-2.69,0.924-4.419,0.924C8.98,174.712,6.873,173.92,5.38,172.336z" style="fill: rgb(255, 255, 255);"/>
  <path d="M26.452,172.218c-1.506-1.663-2.298-3.816-2.376-6.462l-0.04-1.649l0.04-1.649&#10;&#9;c0.078-2.645,0.87-4.799,2.376-6.461c1.505-1.663,3.62-2.495,6.343-2.495c2.724,0,4.838,0.832,6.344,2.495&#10;&#9;c1.505,1.662,2.297,3.816,2.376,6.461c0.025,0.262,0.039,0.812,0.039,1.649c0,0.839-0.014,1.389-0.039,1.649&#10;&#9;c-0.079,2.646-0.871,4.799-2.376,6.462c-1.506,1.663-3.62,2.494-6.344,2.494C30.072,174.712,27.958,173.881,26.452,172.218z&#10;&#9; M37.293,170.646c1.139-1.191,1.748-2.888,1.826-5.087c0.026-0.261,0.04-0.746,0.04-1.453s-0.014-1.191-0.04-1.453&#10;&#9;c-0.079-2.2-0.687-3.895-1.826-5.087c-1.139-1.19-2.639-1.787-4.498-1.787c-1.859,0-3.358,0.597-4.497,1.787&#10;&#9;c-1.139,1.192-1.748,2.887-1.827,5.087l-0.039,1.453l0.039,1.453c0.079,2.199,0.688,3.896,1.827,5.087&#10;&#9;c1.139,1.191,2.638,1.787,4.497,1.787C34.654,172.434,36.154,171.838,37.293,170.646z" style="fill: rgb(255, 255, 255);"/>
  <path d="M47.172,174.083c-0.158-0.157-0.236-0.366-0.236-0.628v-18.697c0-0.261,0.078-0.471,0.236-0.628&#10;&#9;c0.157-0.157,0.367-0.235,0.628-0.235h0.667c0.262,0,0.472,0.078,0.628,0.235c0.157,0.157,0.236,0.367,0.236,0.628v1.375&#10;&#9;c0.68-0.864,1.473-1.518,2.375-1.964c0.904-0.444,1.984-0.668,3.241-0.668c2.932,0,5.027,1.231,6.284,3.692&#10;&#9;c0.629-1.126,1.526-2.022,2.691-2.69s2.494-1.002,3.987-1.002c2.173,0,3.941,0.74,5.303,2.22c1.361,1.479,2.042,3.581,2.042,6.305&#10;&#9;v11.43c0,0.262-0.078,0.471-0.235,0.628c-0.157,0.157-0.367,0.235-0.629,0.235h-0.668c-0.262,0-0.471-0.078-0.627-0.235&#10;&#9;c-0.157-0.157-0.236-0.366-0.236-0.628v-11.038c0-2.382-0.491-4.084-1.473-5.105s-2.272-1.532-3.869-1.532&#10;&#9;c-1.414,0-2.638,0.518-3.673,1.552c-1.034,1.034-1.551,2.729-1.551,5.086v11.038c0,0.262-0.079,0.471-0.236,0.628&#10;&#9;c-0.157,0.157-0.367,0.235-0.628,0.235h-0.668c-0.262,0-0.471-0.078-0.628-0.235c-0.158-0.157-0.236-0.366-0.236-0.628v-11.038&#10;&#9;c0-2.356-0.511-4.052-1.532-5.086c-1.021-1.034-2.292-1.552-3.81-1.552c-1.414,0-2.639,0.518-3.672,1.552&#10;&#9;c-1.035,1.034-1.551,2.717-1.551,5.048v11.076c0,0.262-0.079,0.471-0.236,0.628c-0.157,0.157-0.367,0.235-0.628,0.235H47.8&#10;&#9;C47.539,174.318,47.329,174.24,47.172,174.083z" style="fill: rgb(255, 255, 255);"/>
  <path d="M81.658,174.083c-0.158-0.157-0.236-0.366-0.236-0.628v-18.697c0-0.261,0.078-0.471,0.236-0.628&#10;&#9;c0.157-0.157,0.366-0.235,0.628-0.235h0.668c0.261,0,0.471,0.078,0.628,0.235c0.157,0.157,0.236,0.367,0.236,0.628v1.375&#10;&#9;c0.681-0.864,1.473-1.518,2.376-1.964c0.904-0.444,1.984-0.668,3.241-0.668c2.933,0,5.028,1.231,6.285,3.692&#10;&#9;c0.628-1.126,1.524-2.022,2.69-2.69c1.164-0.668,2.494-1.002,3.985-1.002c2.175,0,3.941,0.74,5.304,2.22&#10;&#9;c1.361,1.479,2.043,3.581,2.043,6.305v11.43c0,0.262-0.079,0.471-0.236,0.628s-0.367,0.235-0.628,0.235h-0.668&#10;&#9;c-0.262,0-0.471-0.078-0.629-0.235c-0.157-0.157-0.235-0.366-0.235-0.628v-11.038c0-2.382-0.491-4.084-1.473-5.105&#10;&#9;c-0.982-1.021-2.272-1.532-3.869-1.532c-1.414,0-2.639,0.518-3.673,1.552c-1.035,1.034-1.552,2.729-1.552,5.086v11.038&#10;&#9;c0,0.262-0.078,0.471-0.235,0.628c-0.156,0.157-0.366,0.235-0.629,0.235h-0.668c-0.262,0-0.471-0.078-0.627-0.235&#10;&#9;c-0.157-0.157-0.236-0.366-0.236-0.628v-11.038c0-2.356-0.51-4.052-1.532-5.086c-1.021-1.034-2.291-1.552-3.81-1.552&#10;&#9;c-1.414,0-2.638,0.518-3.671,1.552c-1.035,1.034-1.552,2.717-1.552,5.048v11.076c0,0.262-0.079,0.471-0.236,0.628&#10;&#9;c-0.157,0.157-0.367,0.235-0.628,0.235h-0.668C82.024,174.318,81.815,174.24,81.658,174.083z" style="fill: rgb(255, 255, 255);"/>
  <path d="M117.479,172.257c-1.52-1.636-2.384-3.83-2.593-6.579l-0.039-1.571l0.039-1.571&#10;&#9;c0.209-2.723,1.066-4.909,2.572-6.56c1.506-1.649,3.517-2.475,6.029-2.475c2.724,0,4.852,0.903,6.383,2.711&#10;&#9;c1.531,1.807,2.298,4.281,2.298,7.424v0.589c0,0.262-0.085,0.472-0.255,0.628c-0.172,0.157-0.388,0.235-0.648,0.235h-13.983v0.394&#10;&#9;c0.052,1.23,0.334,2.376,0.845,3.437c0.51,1.061,1.225,1.912,2.142,2.553c0.916,0.643,1.988,0.963,3.22,0.963&#10;&#9;c1.439,0,2.612-0.281,3.516-0.845c0.903-0.562,1.552-1.132,1.943-1.708c0.236-0.314,0.413-0.512,0.531-0.59s0.334-0.117,0.648-0.117&#10;&#9;h0.628c0.235,0,0.432,0.065,0.589,0.195c0.158,0.132,0.236,0.302,0.236,0.512c0,0.55-0.348,1.211-1.041,1.983&#10;&#9;c-0.694,0.772-1.656,1.44-2.888,2.003c-1.23,0.562-2.618,0.845-4.163,0.845C121,174.712,118.997,173.894,117.479,172.257z&#10;&#9; M129.772,162.889v-0.157c0-2.016-0.568-3.679-1.708-4.987c-1.14-1.31-2.664-1.965-4.576-1.965c-1.911,0-3.424,0.655-4.536,1.965&#10;&#9;c-1.114,1.309-1.67,2.972-1.67,4.987v0.157H129.772z" style="fill: rgb(255, 255, 255);"/>
  <path d="M137.59,174.083c-0.158-0.157-0.236-0.366-0.236-0.628v-18.657c0-0.262,0.078-0.478,0.236-0.648&#10;&#9;c0.156-0.17,0.365-0.255,0.627-0.255h0.63c0.261,0,0.477,0.085,0.647,0.255c0.17,0.171,0.255,0.387,0.255,0.648v1.807&#10;&#9;c0.943-1.807,2.723-2.71,5.342-2.71h1.453c0.262,0,0.472,0.078,0.629,0.235s0.236,0.367,0.236,0.628v0.551&#10;&#9;c0,0.262-0.079,0.471-0.236,0.628s-0.367,0.235-0.629,0.235h-1.689c-1.57,0-2.814,0.459-3.73,1.375&#10;&#9;c-0.917,0.917-1.375,2.161-1.375,3.731v12.177c0,0.262-0.085,0.471-0.255,0.628c-0.171,0.157-0.387,0.235-0.647,0.235h-0.63&#10;&#9;C137.955,174.318,137.746,174.24,137.59,174.083z" style="fill: rgb(255, 255, 255);"/>
  <path d="M151.965,172.336c-1.493-1.585-2.278-3.804-2.357-6.658l-0.039-1.571l0.039-1.571&#10;&#9;c0.079-2.854,0.864-5.073,2.357-6.657s3.6-2.377,6.323-2.377c1.729,0,3.201,0.309,4.419,0.923c1.218,0.616,2.127,1.402,2.729,2.357&#10;&#9;c0.603,0.956,0.93,1.944,0.982,2.965c0.026,0.236-0.053,0.439-0.236,0.609c-0.183,0.171-0.392,0.256-0.628,0.256h-0.55&#10;&#9;c-0.262,0-0.452-0.06-0.57-0.178c-0.116-0.117-0.241-0.334-0.372-0.647c-0.524-1.44-1.258-2.468-2.199-3.083&#10;&#9;c-0.943-0.615-2.135-0.924-3.575-0.924c-1.885,0-3.385,0.57-4.496,1.709c-1.114,1.139-1.709,2.887-1.788,5.243l-0.039,1.375&#10;&#9;l0.039,1.375c0.079,2.356,0.674,4.104,1.788,5.243c1.111,1.14,2.611,1.709,4.496,1.709c1.44,0,2.632-0.308,3.575-0.923&#10;&#9;c0.941-0.615,1.675-1.644,2.199-3.084c0.131-0.313,0.256-0.53,0.372-0.647c0.118-0.118,0.309-0.177,0.57-0.177h0.55&#10;&#9;c0.236,0,0.445,0.085,0.628,0.255c0.184,0.171,0.263,0.373,0.236,0.609c-0.053,1.021-0.38,2.01-0.982,2.965&#10;&#9;c-0.603,0.956-1.512,1.742-2.729,2.356c-1.218,0.616-2.69,0.924-4.419,0.924C155.564,174.712,153.458,173.92,151.965,172.336z" style="fill: rgb(255, 255, 255);"/>
  <path d="M173.175,172.257c-1.52-1.636-2.383-3.83-2.592-6.579l-0.04-1.571l0.04-1.571&#10;&#9;c0.209-2.723,1.065-4.909,2.571-6.56c1.506-1.649,3.517-2.475,6.03-2.475c2.723,0,4.851,0.903,6.383,2.711&#10;&#9;c1.531,1.807,2.298,4.281,2.298,7.424v0.589c0,0.262-0.085,0.472-0.255,0.628c-0.172,0.157-0.388,0.235-0.649,0.235h-13.982v0.394&#10;&#9;c0.052,1.23,0.334,2.376,0.844,3.437c0.512,1.061,1.225,1.912,2.142,2.553c0.915,0.643,1.989,0.963,3.221,0.963&#10;&#9;c1.439,0,2.611-0.281,3.516-0.845c0.903-0.562,1.551-1.132,1.944-1.708c0.235-0.314,0.411-0.512,0.529-0.59s0.334-0.117,0.648-0.117&#10;&#9;h0.629c0.234,0,0.432,0.065,0.589,0.195c0.157,0.132,0.236,0.302,0.236,0.512c0,0.55-0.349,1.211-1.041,1.983&#10;&#9;c-0.694,0.772-1.657,1.44-2.887,2.003c-1.231,0.562-2.619,0.845-4.164,0.845C176.696,174.712,174.693,173.894,173.175,172.257z&#10;&#9; M185.469,162.889v-0.157c0-2.016-0.569-3.679-1.709-4.987c-1.139-1.31-2.665-1.965-4.575-1.965c-1.912,0-3.424,0.655-4.537,1.965&#10;&#9;c-1.113,1.309-1.669,2.972-1.669,4.987v0.157H185.469z" style="fill: rgb(255, 255, 255);"/>
</svg>