<?xml version="1.0" encoding="utf-8"?>
<!-- Generator: Adobe Illustrator 15.1.0, SVG Export Plug-In . SVG Version: 6.00 Build 0)  -->
<!DOCTYPE svg PUBLIC "-//W3C//DTD SVG 1.1//EN" "http://www.w3.org/Graphics/SVG/1.1/DTD/svg11.dtd">
<svg version="1.1" id="Layer_1" xmlns="http://www.w3.org/2000/svg" xmlns:xlink="http://www.w3.org/1999/xlink" x="0px" y="0px"
	 width="378.358px" height="65.227px" viewBox="0 0 378.358 65.227" enable-background="new 0 0 378.358 65.227"
	 xml:space="preserve">
<g>
	<path fill="#993452" d="M93.529,20.784c0.327-0.327,0.728-0.487,1.199-0.487c0.467,0,0.874,0.16,1.216,0.487
		c0.182,0.204,0.312,0.415,0.4,0.639l6.903,24.901l6.91-24.901c0.081-0.224,0.226-0.436,0.422-0.639
		c0.327-0.327,0.728-0.487,1.192-0.487c0.473,0,0.874,0.165,1.208,0.501c0.336,0.334,0.502,0.735,0.502,1.201
		c0,0.247-0.043,0.494-0.131,0.748l-8.35,30.225c-0.118,0.356-0.292,0.661-0.539,0.917c-0.335,0.341-0.742,0.509-1.215,0.509
		c-0.467,0-0.866-0.168-1.192-0.509c-0.256-0.256-0.43-0.561-0.531-0.895l-6.796-24.558l-6.779,24.535
		c-0.116,0.356-0.29,0.661-0.53,0.917c-0.343,0.341-0.75,0.509-1.215,0.509c-0.473,0-0.873-0.168-1.194-0.509
		c-0.262-0.256-0.436-0.561-0.537-0.895l-8.372-30.248c-0.088-0.254-0.131-0.501-0.131-0.748c0-0.465,0.166-0.867,0.5-1.201
		c0.336-0.336,0.736-0.501,1.209-0.501c0.465,0,0.874,0.16,1.214,0.487c0.183,0.204,0.32,0.415,0.401,0.639l6.91,24.901
		l6.902-24.901C93.166,21.213,93.304,21.001,93.529,20.784"/>
	<path fill="#993452" d="M136.733,52.696c0,0.467-0.168,0.867-0.503,1.201c-0.334,0.333-0.734,0.501-1.199,0.501
		c-0.474,0-0.873-0.168-1.209-0.501c-0.333-0.334-0.501-0.734-0.501-1.207v-1.383c-2.132,2.058-4.692,3.091-7.675,3.091
		c-3.055,0-5.666-1.083-7.834-3.252c-2.168-2.168-3.251-4.772-3.251-7.826V32.233c0-0.466,0.167-0.865,0.501-1.201
		c0.335-0.334,0.735-0.502,1.208-0.502c0.465,0,0.865,0.168,1.199,0.502c0.335,0.335,0.502,0.734,0.502,1.201v11.078
		c0,2.119,0.75,3.93,2.248,5.428s3.311,2.248,5.427,2.248c2.117,0,3.929-0.75,5.428-2.248c1.498-1.498,2.247-3.309,2.247-5.428
		V32.233c0-0.466,0.168-0.865,0.501-1.201c0.336-0.334,0.735-0.502,1.209-0.502c0.465,0,0.865,0.168,1.199,0.502
		c0.335,0.335,0.503,0.734,0.503,1.201V52.696z"/>
	<path fill="#993452" d="M141.466,32.233c0-0.466,0.168-0.865,0.503-1.201c0.334-0.334,0.734-0.502,1.207-0.502
		c0.467,0,0.866,0.168,1.199,0.502c0.336,0.335,0.504,0.734,0.504,1.201v1.39c2.13-2.059,4.691-3.093,7.673-3.093
		c3.057,0,5.668,1.084,7.835,3.253c2.168,2.167,3.252,4.771,3.252,7.826v11.086c0,0.467-0.168,0.867-0.501,1.201
		c-0.336,0.333-0.736,0.501-1.2,0.501c-0.474,0-0.873-0.168-1.209-0.501c-0.334-0.334-0.501-0.734-0.501-1.201V41.61
		c0-2.108-0.75-3.92-2.248-5.419c-1.499-1.498-3.311-2.249-5.428-2.249c-2.116,0-3.927,0.751-5.426,2.249
		c-1.498,1.499-2.247,3.311-2.247,5.419v11.086c0,0.467-0.168,0.867-0.504,1.201c-0.333,0.333-0.732,0.501-1.199,0.501
		c-0.473,0-0.873-0.168-1.207-0.501c-0.335-0.334-0.503-0.734-0.503-1.201V32.233z"/>
	<path fill="#993452" d="M187.507,42.461c0-2.357-0.831-4.365-2.496-6.023c-1.658-1.666-3.674-2.496-6.03-2.496
		c-2.357,0-4.371,0.83-6.03,2.496c-1.666,1.658-2.496,3.666-2.496,6.023c0,2.363,0.83,4.371,2.496,6.03
		c1.659,1.665,3.673,2.495,6.03,2.495c2.356,0,4.372-0.83,6.03-2.495C186.676,46.833,187.507,44.825,187.507,42.461 M187.507,21.962
		c0-0.466,0.166-0.865,0.501-1.201c0.335-0.334,0.735-0.502,1.207-0.502c0.466,0,0.865,0.167,1.201,0.502
		c0.333,0.335,0.501,0.734,0.501,1.201v20.5c0,3.301-1.163,6.111-3.498,8.444c-2.328,2.328-5.143,3.492-8.438,3.492
		s-6.11-1.164-8.438-3.492c-2.335-2.333-3.499-5.144-3.499-8.444c0-3.295,1.164-6.104,3.499-8.438
		c2.328-2.328,5.143-3.492,8.438-3.492s6.11,1.164,8.438,3.492c0.028,0.03,0.058,0.059,0.088,0.087V21.962z"/>
	<path fill="#993452" d="M214.632,40.758c-0.312-1.629-1.091-3.076-2.342-4.32c-1.66-1.666-3.675-2.496-6.03-2.496
		c-2.358,0-4.373,0.83-6.03,2.496c-1.253,1.244-2.031,2.691-2.344,4.32H214.632z M212.82,48.601c0.474,0,0.873,0.167,1.207,0.502
		c0.335,0.335,0.503,0.735,0.503,1.2c0,0.473-0.168,0.879-0.495,1.214c-2.197,1.921-4.793,2.881-7.775,2.881
		c-3.296,0-6.111-1.164-8.439-3.492c-2.328-2.333-3.499-5.144-3.499-8.444c0-3.295,1.171-6.104,3.499-8.438
		c2.328-2.328,5.144-3.492,8.439-3.492c3.295,0,6.109,1.164,8.438,3.492c2.327,2.335,3.498,5.144,3.498,8.445
		c0,0.464-0.167,0.865-0.503,1.2c-0.334,0.335-0.734,0.503-1.206,0.503h-18.602c0.312,1.628,1.091,3.075,2.344,4.32
		c1.657,1.665,3.672,2.495,6.03,2.495c2.131,0,3.964-0.676,5.499-2.023C212.071,48.725,212.428,48.601,212.82,48.601"/>
	<path fill="#993452" d="M221.601,32.233c0-0.466,0.167-0.865,0.502-1.201c0.336-0.334,0.734-0.502,1.208-0.502
		c0.465,0,0.865,0.168,1.199,0.502c0.335,0.335,0.502,0.734,0.502,1.201v1.876c2.387-2.386,5.23-3.579,8.526-3.579
		c1.657,0,3.186,0.284,4.582,0.852c0.256,0.102,0.487,0.247,0.699,0.452c0.327,0.342,0.494,0.742,0.494,1.214
		c0,0.465-0.167,0.865-0.502,1.2s-0.734,0.502-1.208,0.502c-0.269,0-0.517-0.058-0.742-0.167c-1.01-0.43-2.116-0.642-3.323-0.642
		c-2.357,0-4.372,0.83-6.03,2.496c-1.666,1.658-2.496,3.674-2.496,6.03v10.228c0,0.467-0.167,0.867-0.502,1.201
		c-0.334,0.333-0.734,0.501-1.199,0.501c-0.474,0-0.872-0.168-1.208-0.501c-0.335-0.334-0.502-0.734-0.502-1.201V32.233z"/>
	<path fill="#993452" d="M257.614,48.557c0.473,0,0.872,0.168,1.208,0.502c0.334,0.334,0.494,0.734,0.494,1.199
		c0,0.473-0.175,0.896-0.531,1.259c-2.204,1.921-4.794,2.881-7.775,2.881c-3.296,0-6.11-1.164-8.438-3.492
		c-2.336-2.333-3.5-5.144-3.5-8.444c0-3.295,1.164-6.104,3.5-8.438c2.327-2.328,5.142-3.492,8.438-3.492
		c2.981,0,5.571,0.96,7.775,2.881c0.4,0.356,0.598,0.794,0.598,1.317c0,0.473-0.168,0.873-0.502,1.207
		c-0.336,0.334-0.735,0.502-1.201,0.502c-0.413,0-0.777-0.131-1.091-0.385c-1.586-1.404-3.447-2.111-5.579-2.111
		c-2.356,0-4.372,0.83-6.031,2.496c-1.665,1.658-2.494,3.666-2.494,6.023c0,2.363,0.829,4.371,2.494,6.03
		c1.659,1.665,3.675,2.495,6.031,2.495c2.132,0,3.986-0.699,5.564-2.088C256.872,48.674,257.215,48.557,257.614,48.557"/>
	<path fill="#993452" d="M285.111,52.696c0,0.467-0.166,0.867-0.502,1.201c-0.335,0.333-0.734,0.501-1.199,0.501
		c-0.474,0-0.874-0.168-1.209-0.501c-0.335-0.334-0.501-0.734-0.501-1.207v-1.383c-2.131,2.058-4.693,3.091-7.675,3.091
		c-3.056,0-5.666-1.083-7.835-3.252c-2.166-2.168-3.251-4.772-3.251-7.826V32.233c0-0.466,0.166-0.865,0.502-1.201
		c0.333-0.334,0.735-0.502,1.206-0.502c0.467,0,0.867,0.168,1.202,0.502c0.333,0.335,0.501,0.734,0.501,1.201v11.078
		c0,2.119,0.749,3.93,2.248,5.428c1.498,1.498,3.309,2.248,5.427,2.248c2.116,0,3.928-0.75,5.427-2.248s2.248-3.309,2.248-5.428
		V32.233c0-0.466,0.166-0.865,0.501-1.201c0.335-0.334,0.735-0.502,1.209-0.502c0.465,0,0.864,0.168,1.199,0.502
		c0.336,0.335,0.502,0.734,0.502,1.201V52.696z"/>
	<path fill="#993452" d="M290.177,32.233c0-0.466,0.169-0.865,0.503-1.201c0.335-0.334,0.734-0.502,1.208-0.502
		c0.464,0,0.865,0.168,1.199,0.502c0.335,0.335,0.501,0.734,0.501,1.201v1.876c2.387-2.386,5.23-3.579,8.526-3.579
		c1.659,0,3.187,0.284,4.582,0.852c0.256,0.102,0.49,0.247,0.699,0.452c0.326,0.342,0.494,0.742,0.494,1.214
		c0,0.465-0.168,0.865-0.501,1.2c-0.335,0.335-0.734,0.502-1.207,0.502c-0.271,0-0.517-0.058-0.743-0.167
		c-1.01-0.43-2.116-0.642-3.324-0.642c-2.356,0-4.371,0.83-6.03,2.496c-1.666,1.658-2.496,3.674-2.496,6.03v10.228
		c0,0.467-0.166,0.867-0.501,1.201c-0.334,0.333-0.735,0.501-1.199,0.501c-0.474,0-0.873-0.168-1.208-0.501
		c-0.334-0.334-0.503-0.734-0.503-1.201V32.233z"/>
	<path fill="#993452" d="M321.611,53.932c-0.312,0.312-0.72,0.466-1.214,0.466c-0.503,0-0.903-0.159-1.216-0.485
		c-0.102-0.09-0.195-0.229-0.274-0.41l-9.467-20.607c-0.087-0.196-0.131-0.415-0.131-0.662c0-0.466,0.168-0.865,0.504-1.201
		c0.334-0.334,0.733-0.502,1.206-0.502c0.467,0,0.873,0.16,1.216,0.488c0.109,0.116,0.218,0.269,0.319,0.451l7.843,17.131
		l7.842-17.131c0.102-0.182,0.209-0.334,0.34-0.451c0.329-0.329,0.721-0.488,1.194-0.488c0.466,0,0.873,0.168,1.201,0.502
		c0.334,0.335,0.501,0.734,0.501,1.201c0,0.247-0.044,0.466-0.123,0.662l-9.464,20.607C321.8,53.684,321.706,53.831,321.611,53.932"
		/>
	<path fill="#993452" d="M353.27,34.023c-2.329-2.328-5.144-3.492-8.438-3.492c-3.297,0-6.112,1.164-8.438,3.492
		c-2.328,2.335-3.5,5.144-3.5,8.438c0,3.301,1.172,6.111,3.5,8.444c2.326,2.328,5.142,3.492,8.438,3.492
		c2.98,0,5.577-0.96,7.775-2.881c0.326-0.335,0.494-0.741,0.494-1.214c0-0.465-0.168-0.865-0.502-1.2s-0.734-0.502-1.208-0.502
		c-0.392,0-0.748,0.124-1.061,0.362c-1.535,1.348-3.369,2.023-5.499,2.023c-2.358,0-4.373-0.83-6.032-2.495
		c-1.251-1.245-2.029-2.692-2.341-4.32h18.6c0.473,0,0.872-0.168,1.208-0.503c0.334-0.335,0.502-0.736,0.502-1.2
		C356.769,39.167,355.597,36.358,353.27,34.023z M336.459,40.758c0.312-1.629,1.09-3.076,2.341-4.32
		c1.659-1.666,3.674-2.496,6.032-2.496c2.355,0,4.371,0.83,6.028,2.496c1.252,1.244,2.03,2.691,2.344,4.32H336.459z"/>
	<path fill="#993452" d="M363.396,42.461c-1.288-0.48-2.19-0.982-2.708-1.515c-1.004-0.987-1.512-2.188-1.512-3.599
		c0-1.405,0.531-2.635,1.579-3.682c2.044-2.088,4.719-3.136,8.016-3.136c3.563,0,6.62,1.426,9.166,4.284
		c0.224,0.27,0.326,0.605,0.312,1.005c0,0.466-0.161,0.865-0.496,1.2c-0.334,0.334-0.733,0.502-1.207,0.502
		c-0.465,0-0.843-0.153-1.128-0.452c-0.283-0.298-0.494-0.509-0.617-0.632c-1.666-1.666-3.674-2.496-6.03-2.496
		s-4.241,0.744-5.652,2.219c-0.336,0.41-0.51,0.902-0.51,1.471c0.043,0.668,0.393,1.119,1.048,1.359l10.482,3.478
		c1.295,0.48,2.197,0.982,2.706,1.513c1.012,0.988,1.514,2.189,1.514,3.602c0,1.404-0.524,2.634-1.58,3.68
		c-2.043,2.089-4.714,3.136-8.008,3.136c-3.579,0-6.635-1.426-9.166-4.284c-0.211-0.299-0.319-0.634-0.319-1.004
		c0-0.465,0.167-0.865,0.501-1.201c0.335-0.334,0.735-0.502,1.199-0.502c0.474,0,0.853,0.146,1.136,0.445
		c0.284,0.297,0.487,0.516,0.619,0.64c1.658,1.665,3.674,2.495,6.03,2.495s4.24-0.742,5.646-2.219
		c0.34-0.407,0.508-0.902,0.508-1.469c-0.036-0.67-0.385-1.121-1.04-1.361L363.396,42.461z"/>
</g>
<g>
	<path fill="#993452" d="M42.497,29.297c-1.83-1.725-3.721-3.441-4.874-5.57c-1.352-1.63-3.418-2.982-4.494-4.752l-0.021-0.003
		c-0.336,1.695-0.656,3.759-0.236,5.125c0.937,1.305,1.487,2.168,1.691,3.712c0.667,2.368,1.004,4.82,0.382,7.233
		c-0.649,2.509-1.243,5.044-1.908,7.538c-0.258,2.229,0.316,4.451,0.04,6.674c-0.198,0.916-0.585,1.8-0.17,2.711
		c0.333,1.139,0.162,2.414,0.634,3.488c0.832,0.582,1.852,1.365,1.307,2.373c-0.578,1.763,1.235,3.35,0.967,5.133
		c0.35,1.35-2.482,2.068-3.334,0.995c-0.737-0.763-0.198-1.974-0.384-2.907c0.015-1.378,0.202-2.799-0.714-4.066
		c-0.211-1.098-0.51-1.566-0.913-0.215c-0.926,1.543-0.343,3.309-0.86,4.928c0.001,1.134,0.241,2.494-1.316,2.988
		c-0.794-0.102-1.421,0.521-2.184,0.535c-0.705,0.084-1.933-0.372-1.313-1.27c0.436-1.201,1.542-2.369,1.785-3.637
		c0.338-1.076,0.664-2.124,1.243-3.125c0.437-2.48,0.402-5.027,0.433-7.526c-0.445-1.302-1.244-2.505-1.613-3.837
		c-0.416-1.494,0.114-3.148-0.877-4.555c-1.502-3.285-3.701-7.227-4.288-10.751c-0.049-1.484-0.024-2.243,0.28-3.678
		c0.111-1.667,1.821-3.135,1.202-4.807c-0.566,1.253-0.831,2.657-2.098,3.572c-1.948,1.885-3.668,4.008-6.12,5.46
		c-0.896,0.345-2.141-0.033-2.58,0.917c-1.598,0.879-0.295-1.088,0.273-1.326c-1.084-0.338-1.955,0.599-3.077,0.389
		c-1.389,0.249-1.473-0.549-0.017-0.515c1.331-0.19,2.48-0.99,3.913-0.785c1.548,0.283,2.111-1.263,2.967-2.037
		c1.388-1.601,2.138-3.499,3.423-5.146c1.175-2.419,0.789-4.917,0.948-7.516c-0.069-0.917,0.924-2.775,2.422-2.641
		c1.255-0.072,2.614,0.194,3.079-1.08c0.351-0.873-0.373-1.642-0.622-2.439c0.155-0.676-1.405-0.739-0.97-1.839
		c-1.025-1.746-0.408-7.042,2.514-6.735c2.921-0.982,4.221,0.547,5.116,1.913c3.542,5.098,3.006,8.569,2.09,10.157
		c0.011,0.006,0.018,0.016,0.021,0.026c1.166,0.4,1.644,1.683,2.114,2.533c0.907,2.531,1.034,4.978,3.237,6.915
		c0.848,2.146,2.376,4.487,4.006,6.315c1.35-0.029,2.756-0.046,3.894,0.678c0.992-0.106,3.201,0.711,1.026,0.632
		c-1.087,0.202-1.913-0.491-2.941-0.445c-1.082-0.061,1.962,1.803,0.26,1.568c-0.624-0.638-1.291-1.016-2.32-0.975
		C43.155,29.559,42.81,29.474,42.497,29.297"/>
	<path fill="#993452" d="M47.305,6.184l-2.663,20.883c1.006,0.017,2.119,0.135,3.137,0.679c0.482,0.021,2.762,0.2,2.762,1.604
		c0,0.432-0.262,0.996-0.998,1.165c-0.195,0.046-0.432,0.067-0.743,0.067l0,0c-0.065,0-0.133-0.002-0.208-0.003
		c-0.156,0.022-0.316,0.033-0.477,0.033c-0.229,0-0.444-0.022-0.648-0.058c-0.007,0.129-0.037,0.262-0.097,0.401
		c-0.098,0.229-0.416,0.763-1.275,0.763c-0.123,0-0.255-0.01-0.406-0.031l-0.371-0.051l-0.262-0.268
		c-0.313-0.321-0.579-0.502-0.887-0.587l-3.394,26.614l-4.747-22.176c-0.008,0.033-0.015,0.064-0.022,0.096
		c-0.272,1.062-0.543,2.149-0.804,3.201c-0.348,1.4-0.706,2.85-1.083,4.266c-0.105,0.978-0.036,1.975,0.038,3.027
		c0.078,1.155,0.16,2.352,0.008,3.578l-0.017,0.098c-0.042,0.199-0.092,0.393-0.14,0.576c-0.177,0.682-0.268,1.086-0.103,1.447
		l0.032,0.072l0.021,0.075c0.177,0.6,0.23,1.187,0.283,1.753c0.045,0.486,0.089,0.951,0.207,1.346
		c0.406,0.297,0.827,0.645,1.145,1.074c0.561,0.76,0.657,1.609,0.276,2.403c-0.131,0.499,0.075,1.056,0.426,1.895
		c0.341,0.819,0.725,1.742,0.626,2.794c0.072,0.526-0.069,1.047-0.41,1.486c-0.053,0.069-0.114,0.135-0.176,0.199h10.411
		c4.326,0,4.974-5.971,4.974-5.971l5.882-52.453H47.305z"/>
	<path fill="#993452" d="M23.53,64.417c-0.001-0.323,0.095-0.651,0.28-0.962c0.225-0.571,0.545-1.101,0.857-1.612
		c0.378-0.621,0.735-1.208,0.838-1.737l0.011-0.063l0.03-0.097c0.271-0.861,0.551-1.748,0.969-2.621l0.022-0.109h0.029
		c0.065-0.133,0.135-0.268,0.209-0.402c0.337-2.035,0.357-4.178,0.375-6.252c0.003-0.239,0.005-0.479,0.008-0.719
		c-0.174-0.467-0.397-0.934-0.636-1.426c-0.348-0.725-0.706-1.475-0.935-2.302c-0.194-0.697-0.219-1.37-0.24-2.021
		c-0.03-0.855-0.055-1.593-0.479-2.193l-0.058-0.083l-0.043-0.094c-0.315-0.689-0.659-1.402-1.024-2.158
		c-0.895-1.861-1.87-3.888-2.565-5.901l-4.619,21.58l-2.918-22.888c-0.19,0.02-0.403,0.048-0.485,0.089l-0.151,0.324l-0.315,0.173
		c-0.453,0.25-0.801,0.361-1.131,0.361c-0.609,0-1.117-0.408-1.234-0.992c-0.013-0.064-0.021-0.13-0.022-0.196
		c-0.292,0.053-0.618,0.075-0.938,0.038c-0.175,0.024-0.341,0.036-0.498,0.036c-0.955,0-1.359-0.451-1.515-0.72
		c-0.221-0.382-0.221-0.84,0.003-1.225c0.212-0.369,0.715-0.811,1.896-0.811h0.014c0.382-0.063,0.774-0.195,1.189-0.333
		c0.68-0.228,1.451-0.485,2.329-0.485c0.128,0,0.257,0.006,0.385,0.017l-2.87-22.514H0l5.882,52.453c0,0,0.646,5.971,4.973,5.971
		h12.229c-0.01,0-0.021,0-0.03-0.001C23.218,64.54,23.377,64.497,23.53,64.417"/>
</g>
</svg>
